<svg xmlns="http://www.w3.org/2000/svg" width="512" height="512" viewBox="0 0 512 512">
<g>
<path d="M 264.50 428.38 C261.20,430.37 257.57,432.00 256.44,432.00 C252.13,432.00 234.34,419.68 221.10,407.53 C198.91,387.15 185.38,366.33 179.32,343.21 C175.87,330.07 175.65,311.63 178.78,298.88 C183.30,280.51 194.72,260.00 208.88,244.84 L 215.84 237.38 L 216.20 206.44 C216.53,177.96 216.72,175.10 218.62,170.41 C223.25,158.99 230.98,151.21 242.00,146.86 C249.80,143.77 263.24,143.81 271.28,146.93 C279.35,150.05 288.04,158.31 292.23,166.82 L 295.50 173.45 L 295.80 204.91 L 296.11 236.36 L 301.88 242.53 C317.16,258.86 326.99,275.51 332.56,294.50 C335.76,305.36 336.92,323.81 335.09,334.60 C332.90,347.53 326.78,363.91 323.10,366.71 C318.82,369.98 311.00,366.01 311.00,360.57 C311.00,359.19 312.30,354.78 313.88,350.78 C318.79,338.40 320.34,329.23 319.69,316.60 C319.03,303.73 317.29,296.63 312.09,285.48 C306.72,273.97 299.83,263.98 290.47,254.11 C285.98,249.37 281.78,244.52 281.15,243.32 C280.35,241.80 280.00,231.47 280.00,209.68 L 280.00 178.23 L 277.21 172.86 C268.61,156.31 245.60,156.06 235.53,172.42 L 232.50 177.34 L 232.19 210.31 L 231.87 243.29 L 223.29 252.59 C208.52,268.59 199.26,284.26 194.85,300.72 C191.96,311.51 191.97,328.43 194.86,339.50 C201.19,363.68 222.04,390.53 249.48,409.86 L 256.46 414.78 L 260.98 411.71 C267.93,406.99 278.95,397.75 284.50,392.02 C292.64,383.59 297.20,382.11 301.55,386.45 C305.87,390.78 304.96,394.20 297.36,402.07 C289.82,409.88 273.42,423.01 264.50,428.38 ZM 158.93 351.04 C156.43,352.38 146.31,352.12 141.50,350.60 C128.27,346.42 117.45,335.83 114.07,323.77 C112.96,319.79 112.44,319.27 108.67,318.25 C102.43,316.58 92.56,309.73 88.55,304.30 C86.60,301.66 84.07,296.97 82.92,293.88 L 80.83 288.26 L 75.25 287.69 C60.23,286.14 44.24,271.44 41.46,256.65 C40.89,253.60 40.03,252.54 36.71,250.85 C31.12,248.00 23.68,240.09 20.54,233.66 C19.09,230.71 17.41,225.32 16.81,221.68 C15.86,215.95 15.94,214.74 17.41,212.50 C18.34,211.07 20.21,209.49 21.55,208.98 C24.52,207.85 24.54,207.57 21.98,203.97 C19.27,200.17 17.32,194.41 16.49,187.79 C15.88,182.88 16.06,182.04 18.32,179.42 L 20.83 176.50 L 74.66 176.50 C124.21,176.50 128.92,176.65 133.74,178.33 C143.14,181.60 146.57,185.92 162.10,214.00 C169.86,228.02 177.51,241.16 179.10,243.19 C182.94,248.08 183.04,253.03 179.37,255.93 C171.96,261.75 166.88,256.38 149.50,224.43 C142.35,211.28 135.23,199.06 133.67,197.28 C132.11,195.50 129.18,193.59 127.17,193.03 C122.46,191.72 34.00,191.62 34.00,192.92 C34.00,195.10 40.95,202.70 45.05,205.00 C49.31,207.39 50.40,207.52 70.84,208.00 C91.78,208.49 92.22,208.54 94.09,210.86 C96.58,213.94 96.52,218.07 93.93,221.37 L 91.85 224.00 L 62.93 224.00 C45.93,224.00 34.00,224.38 34.00,224.92 C34.00,227.10 40.95,234.70 45.05,237.00 C49.45,239.47 49.84,239.51 78.84,240.00 L 108.18 240.50 L 110.09 242.86 C112.58,245.94 112.52,250.07 109.93,253.37 L 107.85 256.00 L 82.93 256.00 C68.38,256.00 58.00,256.38 58.00,256.92 C58.00,259.10 64.95,266.70 69.05,269.00 C73.49,271.50 73.56,271.50 106.84,272.00 L 140.18 272.50 L 142.09 274.86 C144.58,277.94 144.52,282.07 141.93,285.37 L 139.85 288.00 L 118.93 288.00 C106.82,288.00 98.00,288.39 98.00,288.92 C98.00,291.10 104.95,298.70 109.05,301.00 C113.31,303.39 114.40,303.52 134.84,304.00 C155.78,304.49 156.22,304.54 158.09,306.86 C160.58,309.94 160.52,314.07 157.93,317.37 C155.88,319.97 155.70,320.00 142.93,320.00 C135.70,320.00 130.00,320.41 130.00,320.92 C130.00,321.43 131.47,323.79 133.26,326.17 C137.31,331.56 145.62,336.00 151.63,336.00 C157.29,336.00 160.60,337.63 162.05,341.13 C163.45,344.51 161.90,349.45 158.93,351.04 ZM 371.72 350.49 C368.92,351.32 364.08,352.00 360.95,352.00 C356.15,352.00 354.87,351.59 352.64,349.36 C346.63,343.36 351.31,336.03 361.18,335.98 C365.99,335.95 373.26,333.03 376.85,329.69 C378.14,328.48 380.06,325.81 381.12,323.75 L 383.04 320.00 L 370.66 320.00 C359.64,320.00 357.98,319.77 355.63,317.93 C351.91,315.00 351.91,309.00 355.63,306.07 C358.09,304.14 359.57,304.00 377.88,303.98 C395.46,303.96 397.97,303.74 402.00,301.92 C407.58,299.39 410.63,296.59 413.12,291.75 L 415.04 288.00 L 394.66 288.00 C375.55,288.00 374.10,287.87 371.63,285.93 C369.60,284.33 369.00,282.97 369.00,280.00 C369.00,277.03 369.60,275.67 371.63,274.07 C374.17,272.08 375.43,272.00 405.88,271.98 C435.54,271.96 437.78,271.83 442.00,269.92 C447.58,267.39 450.63,264.59 453.12,259.75 L 455.04 256.00 L 430.66 256.00 C407.50,256.00 406.14,255.90 403.63,253.93 C399.91,251.00 399.91,245.00 403.63,242.07 C406.15,240.09 407.48,240.00 433.88,239.98 C459.52,239.96 461.82,239.81 466.00,237.92 C471.58,235.39 474.63,232.59 477.12,227.75 L 479.04 224.00 L 450.66 224.00 C423.45,224.00 422.16,223.91 419.63,221.93 C415.91,219.00 415.91,213.00 419.63,210.07 C422.09,208.14 423.57,208.00 441.88,207.98 C459.46,207.96 461.97,207.74 466.00,205.92 C471.58,203.39 474.63,200.59 477.12,195.75 L 479.04 192.00 L 434.27 192.01 C407.29,192.01 388.06,192.41 385.87,193.02 C383.88,193.57 381.11,195.16 379.72,196.55 C378.33,197.94 370.96,210.40 363.35,224.23 C344.82,257.88 340.31,262.46 332.92,255.08 C328.95,251.10 329.25,247.80 334.10,242.47 C335.11,241.35 342.26,228.97 349.99,214.97 C361.11,194.81 365.07,188.53 368.97,184.86 C378.02,176.35 376.17,176.58 437.25,176.23 L 491.01 175.92 L 493.50 178.41 C495.50,180.41 496.00,181.91 496.00,185.92 C496.00,191.26 492.96,200.73 489.79,205.25 C488.28,207.41 488.17,208.00 489.30,208.00 C490.09,208.00 491.92,208.93 493.37,210.07 C495.61,211.84 496.00,212.91 496.00,217.39 C496.00,229.68 489.19,242.12 478.69,249.03 C472.86,252.86 472.03,253.82 471.00,257.91 C467.21,273.01 452.88,285.80 437.56,287.77 L 431.89 288.50 L 429.62 294.09 C424.88,305.77 416.16,314.22 404.92,318.03 C400.08,319.66 399.67,320.08 398.05,324.85 C393.99,336.86 383.61,346.96 371.72,350.49 ZM 197.55 190.55 C192.59,195.50 187.19,192.93 183.00,183.60 C178.42,173.43 176.68,164.73 176.68,152.00 C176.68,137.66 178.53,129.81 185.04,116.50 C195.17,95.77 214.35,80.39 237.50,74.44 C247.91,71.76 265.99,71.95 276.84,74.84 C304.20,82.13 324.30,101.83 333.16,130.04 C335.19,136.53 335.49,139.45 335.44,152.50 C335.39,166.05 335.12,168.27 332.69,175.50 C329.12,186.14 326.09,191.24 322.66,192.45 C319.27,193.64 315.28,191.75 313.13,187.92 C311.84,185.63 311.96,184.75 314.33,178.83 C320.20,164.15 321.57,150.29 318.44,137.00 C313.38,115.46 295.51,96.92 273.50,90.40 C265.28,87.96 247.72,87.96 239.50,90.40 C214.99,97.67 197.30,117.53 193.25,142.35 C191.82,151.07 191.82,152.91 193.20,161.37 C194.04,166.52 195.92,173.32 197.37,176.49 C200.68,183.73 200.73,187.36 197.55,190.55 ZM 286.84 492.73 L 282.65 495.50 L 258.08 495.69 C244.15,495.80 232.06,495.45 230.18,494.89 C226.22,493.72 218.32,486.13 217.46,482.68 C216.94,480.62 216.05,480.13 211.84,479.57 C195.56,477.41 182.25,465.48 184.36,454.93 C185.49,449.29 198.00,422.55 200.58,420.25 C203.73,417.45 206.95,417.39 210.37,420.07 C214.44,423.27 213.81,426.97 206.51,442.98 C202.94,450.81 200.27,457.62 200.58,458.12 C201.73,459.98 209.30,463.13 213.96,463.68 L 218.78 464.25 L 220.39 458.63 C221.28,455.53 222.71,450.53 223.57,447.51 C225.33,441.35 227.84,439.00 232.65,439.00 C236.26,439.00 240.01,442.77 239.99,446.38 C239.99,447.55 238.21,454.79 236.05,462.48 C235.70,463.71 235.38,464.85 235.07,465.91 C233.23,472.28 232.22,475.78 233.53,477.71 C235.14,480.07 240.23,480.05 251.56,480.01 C253.10,480.01 254.76,480.00 256.53,480.00 C273.93,480.00 277.97,479.74 278.97,478.54 C280.36,476.86 279.56,472.22 275.47,458.11 C272.23,446.95 272.27,443.72 275.63,441.07 C281.22,436.68 286.96,439.31 289.02,447.20 C292.94,462.20 293.50,463.49 296.22,463.81 C300.13,464.27 306.61,462.24 309.67,459.61 L 312.37 457.28 L 305.69 442.27 C302.01,434.02 299.00,426.30 299.00,425.13 C299.00,420.31 306.36,416.57 310.86,419.10 C314.47,421.12 327.96,450.82 327.98,456.79 C328.03,467.98 316.90,477.49 301.32,479.55 C296.79,480.15 296.30,480.51 293.75,485.07 C292.17,487.90 289.26,491.12 286.84,492.73 ZM 312.61 68.56 C311.48,69.35 309.50,70.00 308.20,70.00 C305.39,70.00 300.00,64.93 300.00,62.28 C300.00,60.10 312.18,38.44 315.03,35.55 C319.65,30.86 328.00,34.47 328.00,41.15 C328.00,44.57 315.77,66.35 312.61,68.56 ZM 359.78 101.86 C353.88,105.24 347.88,108.00 346.45,108.00 C343.26,108.00 338.00,103.02 338.00,100.00 C338.00,98.82 339.24,96.62 340.75,95.13 C344.40,91.53 365.08,80.00 367.88,80.00 C371.10,80.00 375.00,84.33 375.00,87.90 C375.00,92.13 372.07,94.82 359.78,101.86 ZM 171.55 105.55 C170.06,107.03 167.99,107.98 166.30,107.94 C163.42,107.88 143.10,96.55 139.63,93.07 C135.39,88.83 139.26,80.00 145.36,80.00 C148.08,80.00 169.80,92.23 172.25,95.14 C174.77,98.13 174.46,102.63 171.55,105.55 ZM 209.55 67.55 C206.49,70.60 202.87,70.68 199.58,67.75 C196.63,65.13 184.00,43.39 184.00,40.94 C184.00,38.45 187.63,34.31 190.41,33.61 C195.34,32.37 197.58,34.42 204.93,46.88 C212.81,60.24 213.54,63.55 209.55,67.55 ZM 261.55 221.55 C258.44,224.65 254.89,224.67 251.31,221.59 C248.50,219.18 248.50,219.17 248.18,204.59 L 247.85 189.99 L 250.85 187.00 C254.53,183.31 258.22,183.13 261.55,186.45 C263.93,188.84 264.00,189.31 264.00,204.00 C264.00,218.69 263.93,219.16 261.55,221.55 ZM 261.55 53.55 C258.44,56.65 254.89,56.67 251.31,53.59 C248.50,51.18 248.50,51.17 248.18,36.59 L 247.85 21.99 L 250.85 19.00 C254.53,15.31 258.22,15.13 261.55,18.45 C263.93,20.84 264.00,21.31 264.00,36.00 C264.00,50.69 263.93,51.16 261.55,53.55 Z" fill="rgb(1,1,1)"/>
<path d="M 0.00 256.00 L 0.00 0.00 L 256.00 0.00 L 512.00 0.00 L 512.00 256.00 L 512.00 512.00 L 256.00 512.00 L 0.00 512.00 L 0.00 256.00 ZM 286.84 492.73 C289.26,491.12 292.17,487.90 293.75,485.07 C296.30,480.51 296.79,480.15 301.32,479.55 C316.90,477.49 328.03,467.98 327.98,456.79 C327.96,450.82 314.47,421.12 310.86,419.10 C306.36,416.57 299.00,420.31 299.00,425.13 C299.00,426.30 302.01,434.02 305.69,442.27 L 312.37 457.28 L 309.67 459.61 C306.61,462.24 300.13,464.27 296.22,463.81 C293.50,463.49 292.94,462.20 289.02,447.20 C286.96,439.31 281.22,436.68 275.63,441.07 C272.27,443.72 272.23,446.95 275.47,458.11 C279.56,472.22 280.36,476.86 278.97,478.54 C277.97,479.74 273.93,480.00 256.53,480.00 C229.23,480.00 230.75,481.30 236.05,462.48 C238.21,454.79 239.99,447.55 239.99,446.38 C240.01,442.77 236.26,439.00 232.65,439.00 C227.84,439.00 225.33,441.35 223.57,447.51 C222.71,450.53 221.28,455.53 220.39,458.63 L 218.78 464.25 L 213.96 463.68 C209.30,463.13 201.73,459.98 200.58,458.12 C200.27,457.62 202.94,450.81 206.51,442.98 C213.81,426.97 214.44,423.27 210.37,420.07 C206.95,417.39 203.73,417.45 200.58,420.25 C198.00,422.55 185.49,449.29 184.36,454.93 C182.25,465.48 195.56,477.41 211.84,479.57 C216.05,480.13 216.94,480.62 217.46,482.68 C218.32,486.13 226.22,493.72 230.18,494.89 C232.06,495.45 244.15,495.80 258.08,495.69 L 282.65 495.50 L 286.84 492.73 ZM 264.50 428.38 C273.42,423.01 289.82,409.88 297.36,402.07 C304.96,394.20 305.87,390.78 301.55,386.45 C297.20,382.11 292.64,383.59 284.50,392.02 C278.95,397.75 267.93,406.99 260.98,411.71 L 256.46 414.78 L 249.48 409.86 C222.04,390.53 201.19,363.68 194.86,339.50 C191.97,328.43 191.96,311.51 194.85,300.72 C199.26,284.26 208.52,268.59 223.29,252.59 L 231.87 243.29 L 232.19 210.31 L 232.50 177.34 L 235.53 172.42 C245.60,156.06 268.61,156.31 277.21,172.86 L 280.00 178.23 L 280.00 209.68 C280.00,231.47 280.35,241.80 281.15,243.32 C281.78,244.52 285.98,249.37 290.47,254.11 C299.83,263.98 306.72,273.97 312.09,285.48 C317.29,296.63 319.03,303.73 319.69,316.60 C320.34,329.23 318.79,338.40 313.88,350.78 C312.30,354.78 311.00,359.19 311.00,360.57 C311.00,366.01 318.82,369.98 323.10,366.71 C326.78,363.91 332.90,347.53 335.09,334.60 C336.92,323.81 335.76,305.36 332.56,294.50 C326.99,275.51 317.16,258.86 301.88,242.53 L 296.11 236.36 L 295.80 204.91 L 295.50 173.45 L 292.23 166.82 C288.04,158.31 279.35,150.05 271.28,146.93 C263.24,143.81 249.80,143.77 242.00,146.86 C230.98,151.21 223.25,158.99 218.62,170.41 C216.72,175.10 216.53,177.96 216.20,206.44 L 215.84 237.38 L 208.88 244.84 C194.72,260.00 183.30,280.51 178.78,298.88 C175.65,311.63 175.87,330.07 179.32,343.21 C185.38,366.33 198.91,387.15 221.10,407.53 C234.34,419.68 252.13,432.00 256.44,432.00 C257.57,432.00 261.20,430.37 264.50,428.38 ZM 158.93 351.04 C161.90,349.45 163.45,344.51 162.05,341.13 C160.60,337.63 157.29,336.00 151.63,336.00 C145.62,336.00 137.31,331.56 133.26,326.17 C131.47,323.79 130.00,321.43 130.00,320.92 C130.00,320.41 135.70,320.00 142.93,320.00 C155.70,320.00 155.88,319.97 157.93,317.37 C160.52,314.07 160.58,309.94 158.09,306.86 C156.22,304.54 155.78,304.49 134.84,304.00 C114.40,303.52 113.31,303.39 109.05,301.00 C104.95,298.70 98.00,291.10 98.00,288.92 C98.00,288.39 106.82,288.00 118.93,288.00 L 139.85 288.00 L 141.93 285.37 C144.52,282.07 144.58,277.94 142.09,274.86 L 140.18 272.50 L 106.84 272.00 C73.56,271.50 73.49,271.50 69.05,269.00 C64.95,266.70 58.00,259.10 58.00,256.92 C58.00,256.38 68.38,256.00 82.93,256.00 L 107.85 256.00 L 109.93 253.37 C112.52,250.07 112.58,245.94 110.09,242.86 L 108.18 240.50 L 78.84 240.00 C49.84,239.51 49.45,239.47 45.05,237.00 C40.95,234.70 34.00,227.10 34.00,224.92 C34.00,224.38 45.93,224.00 62.93,224.00 L 91.85 224.00 L 93.93 221.37 C96.52,218.07 96.58,213.94 94.09,210.86 C92.22,208.54 91.78,208.49 70.84,208.00 C50.40,207.52 49.31,207.39 45.05,205.00 C40.95,202.70 34.00,195.10 34.00,192.92 C34.00,191.62 122.46,191.72 127.17,193.03 C129.18,193.59 132.11,195.50 133.67,197.28 C135.23,199.06 142.35,211.28 149.50,224.43 C166.88,256.38 171.96,261.75 179.37,255.93 C183.04,253.03 182.94,248.08 179.10,243.19 C177.51,241.16 169.86,228.02 162.10,214.00 C146.57,185.92 143.14,181.60 133.74,178.33 C128.92,176.65 124.21,176.50 74.66,176.50 L 20.83 176.50 L 18.32 179.42 C16.06,182.04 15.88,182.88 16.49,187.79 C17.32,194.41 19.27,200.17 21.98,203.97 C24.54,207.57 24.52,207.85 21.55,208.98 C20.21,209.49 18.34,211.07 17.41,212.50 C15.94,214.74 15.86,215.95 16.81,221.68 C17.41,225.32 19.09,230.71 20.54,233.66 C23.68,240.09 31.12,248.00 36.71,250.85 C40.03,252.54 40.89,253.60 41.46,256.65 C44.24,271.44 60.23,286.14 75.25,287.69 L 80.83 288.26 L 82.92 293.88 C84.07,296.97 86.60,301.66 88.55,304.30 C92.56,309.73 102.43,316.58 108.67,318.25 C112.44,319.27 112.96,319.79 114.07,323.77 C117.45,335.83 128.27,346.42 141.50,350.60 C146.31,352.12 156.43,352.38 158.93,351.04 ZM 371.72 350.49 C383.61,346.96 393.99,336.86 398.05,324.85 C399.67,320.08 400.08,319.66 404.92,318.03 C416.16,314.22 424.88,305.77 429.62,294.09 L 431.89 288.50 L 437.56 287.77 C452.88,285.80 467.21,273.01 471.00,257.91 C472.03,253.82 472.86,252.86 478.69,249.03 C489.19,242.12 496.00,229.68 496.00,217.39 C496.00,212.91 495.61,211.84 493.37,210.07 C491.92,208.93 490.09,208.00 489.30,208.00 C488.17,208.00 488.28,207.41 489.79,205.25 C492.96,200.73 496.00,191.26 496.00,185.92 C496.00,181.91 495.50,180.41 493.50,178.41 L 491.01 175.92 L 437.25 176.23 C376.17,176.58 378.02,176.35 368.97,184.86 C365.07,188.53 361.11,194.81 349.99,214.97 C342.26,228.97 335.11,241.35 334.10,242.47 C329.25,247.80 328.95,251.10 332.92,255.08 C340.31,262.46 344.82,257.88 363.35,224.23 C370.96,210.40 378.33,197.94 379.72,196.55 C381.11,195.16 383.88,193.57 385.87,193.02 C388.06,192.41 407.29,192.01 434.27,192.01 L 479.04 192.00 L 477.12 195.75 C474.63,200.59 471.58,203.39 466.00,205.92 C461.97,207.74 459.46,207.96 441.88,207.98 C423.57,208.00 422.09,208.14 419.63,210.07 C415.91,213.00 415.91,219.00 419.63,221.93 C422.16,223.91 423.45,224.00 450.66,224.00 L 479.04 224.00 L 477.12 227.75 C474.63,232.59 471.58,235.39 466.00,237.92 C461.82,239.81 459.52,239.96 433.88,239.98 C407.48,240.00 406.15,240.09 403.63,242.07 C399.91,245.00 399.91,251.00 403.63,253.93 C406.14,255.90 407.50,256.00 430.66,256.00 L 455.04 256.00 L 453.12 259.75 C450.63,264.59 447.58,267.39 442.00,269.92 C437.78,271.83 435.54,271.96 405.88,271.98 C375.43,272.00 374.17,272.08 371.63,274.07 C369.60,275.67 369.00,277.03 369.00,280.00 C369.00,282.97 369.60,284.33 371.63,285.93 C374.10,287.87 375.55,288.00 394.66,288.00 L 415.04 288.00 L 413.12 291.75 C410.63,296.59 407.58,299.39 402.00,301.92 C397.97,303.74 395.46,303.96 377.88,303.98 C359.57,304.00 358.09,304.14 355.63,306.07 C351.91,309.00 351.91,315.00 355.63,317.93 C357.98,319.77 359.64,320.00 370.66,320.00 L 383.04 320.00 L 381.12 323.75 C380.06,325.81 378.14,328.48 376.85,329.69 C373.26,333.03 365.99,335.95 361.18,335.98 C351.31,336.03 346.63,343.36 352.64,349.36 C354.87,351.59 356.15,352.00 360.95,352.00 C364.08,352.00 368.92,351.32 371.72,350.49 ZM 261.55 221.55 C263.93,219.16 264.00,218.69 264.00,204.00 C264.00,189.31 263.93,188.84 261.55,186.45 C258.22,183.13 254.53,183.31 250.85,187.00 L 247.85 189.99 L 248.18 204.59 C248.50,219.17 248.50,219.18 251.31,221.59 C254.89,224.67 258.44,224.65 261.55,221.55 ZM 197.55 190.55 C200.73,187.36 200.68,183.73 197.37,176.49 C195.92,173.32 194.04,166.52 193.20,161.37 C191.82,152.91 191.82,151.07 193.25,142.35 C197.30,117.53 214.99,97.67 239.50,90.40 C247.72,87.96 265.28,87.96 273.50,90.40 C295.51,96.92 313.38,115.46 318.44,137.00 C321.57,150.29 320.20,164.15 314.33,178.83 C311.96,184.75 311.84,185.63 313.13,187.92 C315.28,191.75 319.27,193.64 322.66,192.45 C326.09,191.24 329.12,186.14 332.69,175.50 C335.12,168.27 335.39,166.05 335.44,152.50 C335.49,139.45 335.19,136.53 333.16,130.04 C324.30,101.83 304.20,82.13 276.84,74.84 C265.99,71.95 247.91,71.76 237.50,74.44 C214.35,80.39 195.17,95.77 185.04,116.50 C178.53,129.81 176.68,137.66 176.68,152.00 C176.68,164.73 178.42,173.43 183.00,183.60 C187.19,192.93 192.59,195.50 197.55,190.55 ZM 171.55 105.55 C174.46,102.63 174.77,98.13 172.25,95.14 C169.80,92.23 148.08,80.00 145.36,80.00 C139.26,80.00 135.39,88.83 139.63,93.07 C143.10,96.55 163.42,107.88 166.30,107.94 C167.99,107.98 170.06,107.03 171.55,105.55 ZM 359.78 101.86 C372.07,94.82 375.00,92.13 375.00,87.90 C375.00,84.33 371.10,80.00 367.88,80.00 C365.08,80.00 344.40,91.53 340.75,95.13 C339.24,96.62 338.00,98.82 338.00,100.00 C338.00,103.02 343.26,108.00 346.45,108.00 C347.88,108.00 353.88,105.24 359.78,101.86 ZM 209.55 67.55 C213.54,63.55 212.81,60.24 204.93,46.88 C197.58,34.42 195.34,32.37 190.41,33.61 C187.63,34.31 184.00,38.45 184.00,40.94 C184.00,43.39 196.63,65.13 199.58,67.75 C202.87,70.68 206.49,70.60 209.55,67.55 ZM 312.61 68.56 C315.77,66.35 328.00,44.57 328.00,41.15 C328.00,34.47 319.65,30.86 315.03,35.55 C312.18,38.44 300.00,60.10 300.00,62.28 C300.00,64.93 305.39,70.00 308.20,70.00 C309.50,70.00 311.48,69.35 312.61,68.56 ZM 261.55 53.55 C263.93,51.16 264.00,50.69 264.00,36.00 C264.00,21.31 263.93,20.84 261.55,18.45 C258.22,15.13 254.53,15.31 250.85,19.00 L 247.85 21.99 L 248.18 36.59 C248.50,51.17 248.50,51.18 251.31,53.59 C254.89,56.67 258.44,56.65 261.55,53.55 Z" fill="rgb(254,254,254)"/>
</g>
</svg>